<svg xmlns="http://www.w3.org/2000/svg" xmlns:xlink="http://www.w3.org/1999/xlink" xmlns:lucid="lucid" width="2000" height="613.87"><g transform="translate(620 -459)" lucid:page-tab-id="0_0"><path d="M-200 640c22.1 0 40 17.9 40 40s-17.9 40-40 40h-80c-22.1 0-40-17.9-40-40s17.9-40 40-40z" stroke="#008a0e" stroke-width="2" fill="#008a0e"/><use xlink:href="#a" transform="matrix(1,0,0,1,-315,645) translate(23.35611979166667 43.40277777777778)"/><path d="M40 640c22.1 0 40 17.9 40 40s-17.9 40-40 40h-80c-22.1 0-40-17.9-40-40s17.9-40 40-40z" stroke="#008a0e" stroke-width="2" fill="#008a0e"/><use xlink:href="#b" transform="matrix(1,0,0,1,-75,645) translate(14.344192708333347 25.90277777777778)"/><use xlink:href="#c" transform="matrix(1,0,0,1,-75,645) translate(18.15821180555556 58.16840277777778)"/><path d="M-158 680h58.5" stroke="#008a0e" stroke-width="2" fill="none"/><path d="M-157.97 680.98h-1.1l.07-.97-.03-.98h1.06z" stroke="#008a0e" stroke-width=".05" fill="#008a0e"/><path d="M-84.24 680l-14.26 4.63v-9.26zM280 640c22.1 0 40 17.9 40 40s-17.9 40-40 40h-80c-22.1 0-40-17.9-40-40s17.9-40 40-40z" stroke="#008a0e" stroke-width="2" fill="#008a0e"/><use xlink:href="#d" transform="matrix(1,0,0,1,165,645) translate(29.43793402777778 43.40277777777778)"/><path d="M82 680h58.5" stroke="#008a0e" stroke-width="2" fill="none"/><path d="M82.03 680.98h-1.1L81 680l-.03-.98h1.06z" stroke="#008a0e" stroke-width=".05" fill="#008a0e"/><path d="M155.76 680l-14.26 4.63v-9.26zM760 637.95c22.1 0 40 17.9 40 40s-17.9 40-40 40h-80c-22.1 0-40-17.9-40-40s17.9-40 40-40z" stroke="#008a0e" stroke-width="2" fill="#008a0e"/><use xlink:href="#e" transform="matrix(1,0,0,1,645,642.9517506782972) translate(6.8088107638889 43.40277777777778)"/><path d="M1000 637.95c22.1 0 40 17.9 40 40s-17.9 40-40 40h-80c-22.1 0-40-17.9-40-40s17.9-40 40-40z" stroke="#008a0e" stroke-width="2" fill="#008a0e"/><use xlink:href="#f" transform="matrix(1,0,0,1,885,642.9517506782972) translate(23.773871527777786 43.40277777777778)"/><path d="M802 677.95h58.5" stroke="#008a0e" stroke-width="2" stroke-linejoin="round" fill="none"/><path d="M802.03 678.93h-1.1l.07-.96-.03-1h1.06z" stroke="#008a0e" stroke-width=".05" fill="#008a0e"/><path d="M875.76 677.95l-14.26 4.64v-9.28z" stroke="#008a0e" stroke-width="2" fill="#008a0e"/><path d="M0 722v111a6 6 0 0 1-6 6h-52.84a.16.16 0 0 1-.16-.16.16.16 0 0 0-.16-.15H-80.5" stroke="#fc9432" stroke-width="2" fill="none"/><path d="M.97 722.03H-.96V721H.96z" stroke="#fc9432" stroke-width=".05" fill="#fc9432"/><path d="M-95.76 838.7l14.26-4.65v9.27z" stroke="#fc9432" stroke-width="2" fill="#fc9432"/><path d="M0 722v251.7a6 6 0 0 1-6 6h-74.5" stroke="#fc9432" stroke-width="2" fill="none"/><path d="M.97 722.03H-.96V721H.96z" stroke="#fc9432" stroke-width=".05" fill="#fc9432"/><path d="M-95.76 979.7l14.26-4.65v9.27z" stroke="#fc9432" stroke-width="2" fill="#fc9432"/><path d="M240 638V494.67a6 6 0 0 1 6-6h34.5" stroke="#fe7070" stroke-width="2" fill="none"/><path d="M240.97 639h-1.94v-1.03h1.94z" stroke="#fe7070" stroke-width=".05" fill="#fe7070"/><path d="M295.76 488.67l-14.26 4.63v-9.27zM300 466a6 6 0 0 1 6-6h228a6 6 0 0 1 6 6v45.33a6 6 0 0 1-6 6H306a6 6 0 0 1-6-6z" stroke="#fe7070" stroke-width="2" fill="#fe7070"/><use xlink:href="#g" transform="matrix(1,0,0,1,312,472) translate(16.192708333333314 24.916666666666668)"/><use xlink:href="#h" transform="matrix(1,0,0,1,312,472) translate(117.02604166666667 24.916666666666668)"/><path d="M0 819.2a6 6 0 0 1 6-6h102.78a6 6 0 0 1 6 6v22.2a6 6 0 0 1-6 6H6a6 6 0 0 1-6-6z" fill="none"/><use xlink:href="#i" transform="matrix(1,0,0,1,5,818.205703125) translate(0 19.775390625)"/><path d="M-140 939.7c22.1 0 40 17.9 40 40 0 22.08-17.9 40-40 40h-80c-22.1 0-40-17.92-40-40 0-22.1 17.9-40 40-40z" stroke="#fc9432" stroke-width="2" fill="#fc9432"/><use xlink:href="#j" transform="matrix(1,0,0,1,-255,944.686171875) translate(16.625 42.54166666666667)"/><path d="M0 946a6 6 0 0 1 6-6h228a6 6 0 0 1 6 6v44.9a6 6 0 0 1-6 6H6a6 6 0 0 1-6-6z" fill="none"/><use xlink:href="#k" transform="matrix(1,0,0,1,5,945) translate(0 30.775390625)"/><use xlink:href="#l" transform="matrix(1,0,0,1,5,945) translate(157.939453125 30.775390625)"/><use xlink:href="#m" transform="matrix(1,0,0,1,5,945) translate(195.361328125 30.775390625)"/><path d="M300 526a6 6 0 0 1 6-6h288a6 6 0 0 1 6 6v45.33a6 6 0 0 1-6 6H306a6 6 0 0 1-6-6z" fill="none"/><use xlink:href="#n" transform="matrix(1,0,0,1,305,525) translate(0 17.560763888888893)"/><use xlink:href="#o" transform="matrix(1,0,0,1,305,525) translate(63.47222222222222 17.560763888888893)"/><use xlink:href="#p" transform="matrix(1,0,0,1,305,525) translate(99.61805555555556 17.560763888888893)"/><use xlink:href="#q" transform="matrix(1,0,0,1,305,525) translate(145.68576388888889 17.560763888888893)"/><use xlink:href="#o" transform="matrix(1,0,0,1,305,525) translate(157.09201388888889 17.560763888888893)"/><use xlink:href="#r" transform="matrix(1,0,0,1,305,525) translate(193.23784722222223 17.560763888888893)"/><use xlink:href="#s" transform="matrix(1,0,0,1,305,525) translate(0 43.373263888888886)"/><use xlink:href="#t" transform="matrix(1,0,0,1,305,525) translate(100.85937500000003 43.373263888888886)"/><use xlink:href="#u" transform="matrix(1,0,0,1,305,525) translate(164.95659722222226 43.373263888888886)"/><path d="M720.02 719.95l.03 1.34.14 2.3.23 2.28.34 2.26.43 2.26.53 2.25.63 2.26.73 2.26.83 2.27.96 2.28 1.07 2.3 1.2 2.32 1.36 2.34 1.5 2.37 1.68 2.4 1.85 2.43 2.04 2.46 2.25 2.5 2.48 2.54 2.74 2.57 3 2.6 3.3 2.6 3.63 2.64 3.95 2.63 4.3 2.6 4.7 2.57 5.04 2.5 5.4 2.42 5.8 2.28 6.12 2.13 6.4 1.95 6.68 1.7 6.86 1.47 6.98 1.18 7.03.88 7 .6 6.94.28 3.42.04 6.94-.15 7-.45 7-.74 6.97-1.04 6.83-1.33 6.66-1.6 6.42-1.8 6.13-2.03 5.8-2.2 5.48-2.33 5.1-2.44 4.76-2.52 4.4-2.57 4.04-2.6 3.7-2.62 3.4-2.62 3.1-2.62 2.82-2.6 2.57-2.56 2.33-2.54 2.12-2.52 1.92-2.48 1.74-2.46 1.57-2.43 1.42-2.4 1.26-2.4 1.14-2.37 1-2.35.88-2.35.25-.75" stroke="#5e5e5e" stroke-width="2" stroke-linejoin="round" fill="none"/><path d="M721 719.96l-1.95.04-.02-1.05h1.95z" stroke="#5e5e5e" stroke-width=".05" fill="#5e5e5e"/><path d="M956.82 722.14l2.26 14.84-9.15-1.5z" stroke="#5e5e5e" stroke-width="2" fill="#5e5e5e"/><path d="M959.98 635.95l-.03-1.38-.15-2.3-.23-2.25-.33-2.2-.4-2.14-.5-2.1-.58-2.08-.66-2.05-.75-2.02-.85-2-.94-2-1.04-2-1.15-1.98-1.26-2-1.38-2-1.52-2-1.67-2-1.83-2.05-2.02-2.05-2.2-2.07-2.44-2.1-2.67-2.12-2.95-2.14-3.25-2.16-3.6-2.18-3.97-2.18-4.4-2.18-4.86-2.16-5.36-2.12-5.9-2.06-6.5-1.96-7.07-1.8-7.66-1.64-8.23-1.4-8.7-1.1-9.1-.75-9.36-.4H835l-9.35.4-9.1.77-8.72 1.1-8.23 1.4-7.66 1.62-7.08 1.8-6.48 1.97-5.9 2.04-5.37 2.12-4.85 2.16-4.4 2.18-3.97 2.2-3.6 2.16-3.24 2.16-2.95 2.15-2.7 2.1-2.42 2.1-2.2 2.1-2.02 2.04-1.83 2.04-1.67 2.02-1.52 2-1.4 2-1.25 2-1.16 1.98-1.04 2-.94 1.98-.84 2-.52 1.4" stroke="#5e5e5e" stroke-width="2" stroke-linejoin="round" fill="none"/><path d="M960.98 636.95H959l-.02-1 1.95-.05z" stroke="#5e5e5e" stroke-width=".05" fill="#5e5e5e"/><path d="M720 633.76l-2.12-14.84 9.14 1.58z" stroke="#5e5e5e" stroke-width="2" fill="#5e5e5e"/><path d="M760 723.95a6 6 0 0 1 6-6h168a6 6 0 0 1 6 6v51.25a6 6 0 0 1-6 6H766a6 6 0 0 1-6-6z" fill="none"/><use xlink:href="#v" transform="matrix(1,0,0,1,765,722.9517506782972) translate(20.1953125 19.755859375)"/><use xlink:href="#w" transform="matrix(1,0,0,1,765,722.9517506782972) translate(73.53515625 19.755859375)"/><use xlink:href="#x" transform="matrix(1,0,0,1,765,722.9517506782972) translate(103.06640625 19.755859375)"/><use xlink:href="#y" transform="matrix(1,0,0,1,765,722.9517506782972) translate(43.8720703125 48.794921875)"/><path d="M-140 798.7c22.1 0 40 17.9 40 40 0 22.08-17.9 40-40 40h-80c-22.1 0-40-17.92-40-40 0-22.1 17.9-40 40-40z" stroke="#fc9432" stroke-width="2" fill="#fc9432"/><use xlink:href="#z" transform="matrix(1,0,0,1,-255,803.686171875) translate(1.689453125 41.25)"/><path d="M-460 825.7a6 6 0 0 1 6-6h188a6 6 0 0 1 6 6v148a6 6 0 0 1-6 6h-188a6 6 0 0 1-6-6z" fill="none"/><path d="M-260 979.7c-5.52 0-10-4.5-10-10v-60c0-5.54-4.48-10-10-10 5.52 0 10-4.5 10-10v-60c0-5.54 4.48-10 10-10" stroke="#000" stroke-width="2" fill="none"/><use xlink:href="#A" transform="matrix(1,0,0,1,-455,824.686171875) translate(10.333333333333329 67.27291666666667)"/><use xlink:href="#B" transform="matrix(1,0,0,1,-455,824.686171875) translate(16.33333333333333 67.27291666666667)"/><use xlink:href="#C" transform="matrix(1,0,0,1,-455,824.686171875) translate(34.79687499999999 98.24791666666667)"/><use xlink:href="#D" transform="matrix(1,0,0,1,-455,824.686171875) translate(66.296875 98.24791666666667)"/><path d="M520 640c22.1 0 40 17.9 40 40s-17.9 40-40 40h-80c-22.1 0-40-17.9-40-40s17.9-40 40-40z" stroke="#008a0e" stroke-width="2" fill="#008a0e"/><use xlink:href="#E" transform="matrix(1,0,0,1,405,645) translate(25.6076388888889 43.40277777777778)"/><path d="M322 680h58.5" stroke="#008a0e" stroke-width="2" fill="none"/><path d="M322.03 680.98h-1.1l.07-.97-.03-.98h1.06z" stroke="#008a0e" stroke-width=".05" fill="#008a0e"/><path d="M395.76 680l-14.26 4.63v-9.26z" stroke="#008a0e" stroke-width="2" fill="#008a0e"/><path d="M562 680h58.57" stroke="#008a0e" stroke-width="2" fill="none"/><path d="M562.03 680.98h-1.1l.07-.97-.03-.98h1.06z" stroke="#008a0e" stroke-width=".05" fill="#008a0e"/><path d="M635.84 680l-14.27 4.63v-9.26z" stroke="#008a0e" stroke-width="2" fill="#008a0e"/><path d="M719.98 719.95l-.03 1.38-.15 2.3-.23 2.25-.33 2.2-.4 2.15-.5 2.1-.58 2.1-.67 2.05-.77 2.04-.85 2.02-.95 2.02-1.05 2-1.16 2-1.27 2.02-1.4 2.02-1.55 2.03-1.7 2.05-1.85 2.07-2.05 2.08-2.25 2.1-2.47 2.15-2.72 2.15-3 2.2-3.33 2.2-3.67 2.2-4.05 2.24-4.48 2.22-4.96 2.2-5.48 2.17-6.03 2.1-6.6 2-7.22 1.84-7.78 1.66-8.34 1.4-8.8 1.12-9.15.77-9.37.4h-9.4l-9.3-.4-9-.76-8.6-1.1-8.06-1.36-7.5-1.6-6.93-1.76-6.34-1.9-5.76-2.02-5.23-2.07-4.74-2.12-4.28-2.12-3.88-2.13-3.5-2.12-3.18-2.1-2.9-2.1-2.6-2.06-2.38-2.06-2.17-2.03-1.97-2-1.8-2-1.63-2-1.5-1.96-1.36-1.97-1.26-1.96-1.13-1.96-1-1.95-.94-1.98-.84-1.98-.46-1.27" stroke="#5e5e5e" stroke-width="2" stroke-linejoin="round" fill="none"/><path d="M720.95 720l-1.95-.04.02-1H721z" stroke="#5e5e5e" stroke-width=".05" fill="#5e5e5e"/><path d="M480.56 724.2l7 13.25-9.13 1.6z" stroke="#5e5e5e" stroke-width="2" fill="#5e5e5e"/><path d="M500 788.67a6 6 0 0 1 6-6h168a6 6 0 0 1 6 6v51.25a6 6 0 0 1-6 6H506a6 6 0 0 1-6-6z" fill="none"/><use xlink:href="#F" transform="matrix(1,0,0,1,505,787.6670833333334) translate(5.654296875 34.275390625)"/><use xlink:href="#G" transform="matrix(1,0,0,1,505,787.6670833333334) translate(41.962890625 34.275390625)"/><path d="M1040 652.33a6 6 0 0 1 6-6h328a6 6 0 0 1 6 6v51.25a6 6 0 0 1-6 6h-328a6 6 0 0 1-6-6z" fill="none"/><path d="M1040 709.58c5.52 0 10-4.48 10-10v-11.63c0-5.52 4.48-10 10-10-5.52 0-10-4.48-10-10v-11.62c0-5.53-4.48-10-10-10" stroke="#000" stroke-width="2" fill="none"/><g><use xlink:href="#H" transform="matrix(1,0,0,1,1075,651.3276100532972) translate(0 20.666666666666668)"/><use xlink:href="#I" transform="matrix(1,0,0,1,1075,651.3276100532972) translate(68.96875 20.666666666666668)"/><use xlink:href="#J" transform="matrix(1,0,0,1,1075,651.3276100532972) translate(82.65625 20.666666666666668)"/><use xlink:href="#K" transform="matrix(1,0,0,1,1075,651.3276100532972) translate(191.07291666666669 20.666666666666668)"/><use xlink:href="#L" transform="matrix(1,0,0,1,1075,651.3276100532972) translate(0 51.641666666666666)"/></g><path d="M900 859.4a12 12 0 0 1 12-12h296a12 12 0 0 1 12 12v200.47a12 12 0 0 1-12 12H912a12 12 0 0 1-12-12z" stroke="#dfe3e8" stroke-width="2" fill="#fff"/><path d="M940.5 933.48a15.2 15.2 0 0 1 15.2-15.2 15.2 15.2 0 0 1 15.17 15.2 15.2 15.2 0 0 1-15.18 15.18 15.2 15.2 0 0 1-15.2-15.18" stroke="#000" stroke-opacity=".25" fill="#008a0e"/><path d="M940.5 973.97a15.2 15.2 0 0 1 15.2-15.18 15.2 15.2 0 0 1 15.17 15.17 15.2 15.2 0 0 1-15.18 15.2 15.2 15.2 0 0 1-15.2-15.2" stroke="#000" stroke-opacity=".25" fill="#fc9432"/><path d="M940.5 1029.12a15.2 15.2 0 0 1 15.2-15.2 15.2 15.2 0 0 1 15.17 15.2 15.2 15.2 0 0 1-15.18 15.2 15.2 15.2 0 0 1-15.2-15.2" stroke="#000" stroke-opacity=".25" fill="#fe7070"/><g><use xlink:href="#M" transform="matrix(1,0,0,1,940.4988750532739,877.7890781649554) translate(0 22.0478515625)"/><use xlink:href="#N" transform="matrix(1,0,0,1,940.4988750532739,877.7890781649554) translate(80.26171875 22.0478515625)"/><use xlink:href="#O" transform="matrix(1,0,0,1,940.4988750532739,877.7890781649554) translate(106.91015625 22.0478515625)"/></g><g><use xlink:href="#P" transform="matrix(1,0,0,1,986.060109488207,918.2879532182294) translate(0 20.5927734375)"/><use xlink:href="#Q" transform="matrix(1,0,0,1,986.060109488207,918.2879532182294) translate(39.59375 20.5927734375)"/></g><g><use xlink:href="#R" transform="matrix(1,0,0,1,986.060109488207,958.7868282715033) translate(0 18.776074218749997)"/><use xlink:href="#S" transform="matrix(1,0,0,1,986.060109488207,958.7868282715033) translate(102.1767578125 18.776074218749997)"/><use xlink:href="#T" transform="matrix(1,0,0,1,986.060109488207,958.7868282715033) translate(0 37.40947265625)"/><use xlink:href="#U" transform="matrix(1,0,0,1,986.060109488207,958.7868282715033) translate(87.6708984375 37.40947265625)"/></g><g><use xlink:href="#V" transform="matrix(1,0,0,1,986.060109488207,1013.9321867447701) translate(0 20.5927734375)"/><use xlink:href="#W" transform="matrix(1,0,0,1,986.060109488207,1013.9321867447701) translate(74.224609375 20.5927734375)"/><use xlink:href="#X" transform="matrix(1,0,0,1,986.060109488207,1013.9321867447701) translate(86.0234375 20.5927734375)"/></g><path d="M542 488.67h33a6 6 0 0 1 6 6V593a6 6 0 0 1-6 6h-89a6 6 0 0 0-6 6v15.5" stroke="#fe7070" stroke-width="2" fill="none"/><path d="M542.03 489.64H541v-1.95h1.03z" stroke="#fe7070" stroke-width=".05" fill="#fe7070"/><path d="M480 635.76l-4.63-14.26h9.26z" stroke="#fe7070" stroke-width="2" fill="#fe7070"/><path d="M-620 646a6 6 0 0 1 6-6h288a6 6 0 0 1 6 6v68a6 6 0 0 1-6 6h-288a6 6 0 0 1-6-6z" fill="none"/><path d="M-320 720c-5.52 0-10-4.48-10-10v-20c0-5.52-4.48-10-10-10 5.52 0 10-4.48 10-10v-20c0-5.52 4.48-10 10-10" stroke="#008a0e" stroke-width="2" fill="none"/><g><use xlink:href="#Y" transform="matrix(1,0,0,1,-615,645) translate(24.140624999999986 27.272916666666667)"/><use xlink:href="#Z" transform="matrix(1,0,0,1,-615,645) translate(118.75520833333331 27.272916666666667)"/><use xlink:href="#aa" transform="matrix(1,0,0,1,-615,645) translate(179.40104166666669 27.272916666666667)"/><use xlink:href="#ab" transform="matrix(1,0,0,1,-615,645) translate(28.98958333333333 58.24791666666667)"/><use xlink:href="#ac" transform="matrix(1,0,0,1,-615,645) translate(121.39583333333333 58.24791666666667)"/></g><defs><path fill="#fff" d="M52 0l541-1490h220L1361 0h-200l-149-416H398L254 0H52zm404-582h497c-103-290-145-390-251-756-108 377-145 460-246 756" id="ad"/><path fill="#fff" d="M1096 418H916v-591h-14C865-111 790 24 577 24c-279 0-473-224-473-580 0-354 195-576 474-576 218 0 287 134 324 193h20v-179h174V418zM604-137c203 0 314-172 314-421 0-247-108-413-314-413-212 0-317 181-317 413 0 235 108 421 317 421" id="ae"/><path fill="#fff" d="M537 14c-226 0-379-139-379-422v-710h180v695c0 172 97 275 253 275 160 0 281-109 281-300v-670h181V0H879v-209C806-46 684 14 537 14" id="af"/><path fill="#fff" d="M158 0v-1118h180V0H158zm91-1301c-68 0-125-53-125-119s57-119 125-119c69 0 126 53 126 119s-57 119-126 119" id="ag"/><path fill="#fff" d="M538 24C308 24 148-78 108-271l171-41c32 123 123 178 257 178 156 0 256-77 256-169 0-77-54-128-164-154l-186-44c-203-48-300-148-300-305 0-192 176-326 414-326 230 0 351 112 402 269l-163 42c-31-80-94-158-238-158-133 0-233 69-233 162 0 83 57 129 188 160l169 40c203 48 298 149 298 302 0 196-179 339-441 339" id="ah"/><path fill="#fff" d="M502 418V313h118c73 0 98-17 98-66s-25-65-98-65h-82l21-161C285-4 104-228 104-552c0-350 205-580 509-580 216 0 392 114 453 309l-173 49c-33-115-133-197-280-197-223 0-326 196-326 419 0 220 103 415 326 415 150 0 252-85 285-206l172 49C1015-110 859 5 663 22v64c130 5 189 54 189 162 0 118-71 170-231 170H502" id="ai"/><path fill="#fff" d="M471 26C259 26 90-98 90-318c0-256 228-303 435-329 202-27 287-16 287-108 0-139-79-219-234-219-161 0-248 86-283 164l-173-57c86-203 278-265 451-265 150 0 419 46 419 395V0H815v-152h-12C765-73 660 26 471 26zm31-159c199 0 310-134 310-271v-155c-30 35-226 55-295 64-131 17-246 59-246 186 0 116 97 176 231 176zm187-1180c-99 0-192-83-243-83-35 0-51 40-53 79H267c4-120 55-208 162-208 104 0 174 85 241 85 33 0 49-23 56-81h123c-4 126-62 208-160 208" id="aj"/><path fill="#fff" d="M613 24c-304 0-509-231-509-576 0-350 205-580 509-580 305 0 511 230 511 580 0 345-206 576-511 576zm0-161c226 0 329-195 329-415 0-222-103-419-329-419-223 0-326 196-326 419 0 220 103 415 326 415" id="ak"/><g id="a"><use transform="matrix(0.010850694444444444,0,0,0.010850694444444444,0,0)" xlink:href="#ad"/><use transform="matrix(0.010850694444444444,0,0,0.010850694444444444,15.33203125,0)" xlink:href="#ae"/><use transform="matrix(0.010850694444444444,0,0,0.010850694444444444,28.938802083333332,0)" xlink:href="#af"/><use transform="matrix(0.010850694444444444,0,0,0.010850694444444444,42.07899305555556,0)" xlink:href="#ag"/><use transform="matrix(0.010850694444444444,0,0,0.010850694444444444,47.4609375,0)" xlink:href="#ah"/><use transform="matrix(0.010850694444444444,0,0,0.010850694444444444,59.19053819444444,0)" xlink:href="#ag"/><use transform="matrix(0.010850694444444444,0,0,0.010850694444444444,64.57248263888889,0)" xlink:href="#ai"/><use transform="matrix(0.010850694444444444,0,0,0.010850694444444444,77.48480902777777,0)" xlink:href="#aj"/><use transform="matrix(0.010850694444444444,0,0,0.010850694444444444,89.96310763888889,0)" xlink:href="#ak"/></g><path fill="#fff" d="M180 0v-1490h510c348 0 508 209 508 474 0 266-160 477-507 477H370V0H180zm190-706h312c236 0 327-133 327-310 0-176-91-307-329-307H370v617" id="al"/><path fill="#fff" d="M158 0v-1118h174v172h12c41-113 157-188 290-188 26 0 70 2 91 3v181c-11-2-60-10-108-10-161 0-279 109-279 260V0H158" id="am"/><path fill="#fff" d="M628 24c-324 0-524-230-524-574 0-343 198-582 503-582 237 0 487 146 487 559v75H286c9 234 145 362 343 362 132 0 231-58 273-172l174 48C1024-91 857 24 628 24zM287-650h624c-17-190-120-322-304-322-192 0-309 151-320 322zm237-614l140-294h201l-194 294H524" id="an"/><path fill="#fff" d="M798-719v166H144v-166h654" id="ao"/><path fill="#fff" d="M481 0L54-1118h197c107 314 236 620 325 951 87-331 217-637 324-951h197L670 0H481" id="ap"/><path fill="#fff" d="M628 24c-324 0-524-230-524-574 0-343 198-582 503-582 237 0 487 146 487 559v75H286c9 234 145 362 343 362 132 0 231-58 273-172l174 48C1024-91 857 24 628 24zM287-650h624c-17-190-120-322-304-322-192 0-309 151-320 322" id="aq"/><path fill="#fff" d="M338-670V0H158v-1118h173l1 207c72-158 192-221 342-221 226 0 378 139 378 422V0H872v-695c0-172-96-275-252-275-161 0-282 109-282 300" id="ar"/><path fill="#fff" d="M577 24c-279 0-473-224-473-580 0-354 195-576 474-576 218 0 287 134 324 193h14v-551h180V0H922v-173h-20C865-111 790 24 577 24zm27-161c203 0 314-172 314-421 0-247-108-413-314-413-212 0-317 181-317 413 0 235 108 421 317 421" id="as"/><path fill="#fff" d="M471 26C259 26 90-98 90-318c0-256 228-303 435-329 202-27 287-16 287-108 0-139-79-219-234-219-161 0-248 86-283 164l-173-57c86-203 278-265 451-265 150 0 419 46 419 395V0H815v-152h-12C765-73 660 26 471 26zm31-159c199 0 310-134 310-271v-155c-30 35-226 55-295 64-131 17-246 59-246 186 0 116 97 176 231 176" id="at"/><g id="b"><use transform="matrix(0.010850694444444444,0,0,0.010850694444444444,0,0)" xlink:href="#al"/><use transform="matrix(0.010850694444444444,0,0,0.010850694444444444,14.192708333333332,0)" xlink:href="#am"/><use transform="matrix(0.010850694444444444,0,0,0.010850694444444444,22.189670138888886,0)" xlink:href="#an"/><use transform="matrix(0.010850694444444444,0,0,0.010850694444444444,35.14539930555555,0)" xlink:href="#ao"/><use transform="matrix(0.010850694444444444,0,0,0.010850694444444444,45.36675347222221,0)" xlink:href="#ap"/><use transform="matrix(0.010850694444444444,0,0,0.010850694444444444,57.421874999999986,0)" xlink:href="#aq"/><use transform="matrix(0.010850694444444444,0,0,0.010850694444444444,70.37760416666666,0)" xlink:href="#ar"/><use transform="matrix(0.010850694444444444,0,0,0.010850694444444444,83.50694444444443,0)" xlink:href="#as"/><use transform="matrix(0.010850694444444444,0,0,0.010850694444444444,97.11371527777776,0)" xlink:href="#at"/><use transform="matrix(0.010850694444444444,0,0,0.010850694444444444,109.59201388888887,0)" xlink:href="#ah"/></g><path fill="#fff" d="M218-607c0-325 108-727 258-974h175c-155 315-250 682-250 974 0 265 78 531 250 886H476C306-10 218-315 218-607" id="au"/><path fill="#fff" d="M657 26c-323 0-524-166-541-416h195c15 169 171 246 346 246 202 0 356-106 356-265 5-203-294-238-475-293-239-73-380-191-380-389 0-252 224-419 512-419 294 0 499 171 508 396H992c-17-145-151-228-328-228-193 0-321 102-321 242 0 156 175 211 284 241l149 41c160 44 422 134 422 412 0 244-197 432-541 432" id="av"/><path fill="#fff" d="M645 0H180v-1490h484c435 0 692 280 692 742 0 466-257 748-711 748zM370-168h263c363 0 539-218 539-580 0-358-176-574-521-574H370v1154" id="aw"/><path fill="#fff" d="M180 0v-1490h510c348 0 508 194 508 460 0 198-88 351-276 417L1256 0h-220L726-579c-117 2-238 0-356 1V0H180zm190-747h312c235 0 327-108 327-283 0-177-92-293-329-293H370v576" id="ax"/><path fill="#fff" d="M692-1560L212 224H46l480-1784h166" id="ay"/><path fill="#fff" d="M180 0v-1490h528c311 0 458 177 458 395 0 191-114 278-244 313v14c139 9 302 137 302 371 0 225-148 397-499 397H180zm190-168h350c232 0 321-102 321-231 0-149-120-277-311-277H370v508zm0-668h328c160 0 286-101 286-255 0-129-87-231-280-231H370v486" id="az"/><path fill="#fff" d="M96 279C273-86 346-350 346-607c0-292-95-659-250-974h175c150 246 258 650 258 974 0 297-91 602-258 886H96" id="aA"/><g id="c"><use transform="matrix(0.010850694444444444,0,0,0.010850694444444444,0,0)" xlink:href="#au"/><use transform="matrix(0.010850694444444444,0,0,0.010850694444444444,8.10546875,0)" xlink:href="#av"/><use transform="matrix(0.010850694444444444,0,0,0.010850694444444444,22.36328125,0)" xlink:href="#aw"/><use transform="matrix(0.010850694444444444,0,0,0.010850694444444444,38.400607638888886,0)" xlink:href="#ax"/><use transform="matrix(0.010850694444444444,0,0,0.010850694444444444,52.701822916666664,0)" xlink:href="#ay"/><use transform="matrix(0.010850694444444444,0,0,0.010850694444444444,60.709635416666664,0)" xlink:href="#az"/><use transform="matrix(0.010850694444444444,0,0,0.010850694444444444,75.24956597222221,0)" xlink:href="#aw"/><use transform="matrix(0.010850694444444444,0,0,0.010850694444444444,91.28689236111111,0)" xlink:href="#ax"/><use transform="matrix(0.010850694444444444,0,0,0.010850694444444444,105.58810763888887,0)" xlink:href="#aA"/></g><path fill="#fff" d="M598-1118v154H368v674c0 100 37 144 132 144 23 0 62-6 92-12L629-6c-37 13-88 20-134 20-193 0-307-107-307-290v-688H20v-154h168v-266h180v266h230" id="aB"/><g id="d"><use transform="matrix(0.010850694444444444,0,0,0.010850694444444444,0,0)" xlink:href="#ad"/><use transform="matrix(0.010850694444444444,0,0,0.010850694444444444,14.898003472222221,0)" xlink:href="#aB"/><use transform="matrix(0.010850694444444444,0,0,0.010850694444444444,22.16796875,0)" xlink:href="#ag"/><use transform="matrix(0.010850694444444444,0,0,0.010850694444444444,27.549913194444443,0)" xlink:href="#ap"/><use transform="matrix(0.010850694444444444,0,0,0.010850694444444444,39.93055555555556,0)" xlink:href="#at"/><use transform="matrix(0.010850694444444444,0,0,0.010850694444444444,52.40885416666667,0)" xlink:href="#ai"/><use transform="matrix(0.010850694444444444,0,0,0.010850694444444444,65.32118055555556,0)" xlink:href="#aj"/><use transform="matrix(0.010850694444444444,0,0,0.010850694444444444,77.79947916666667,0)" xlink:href="#ak"/></g><path fill="#fff" d="M180 0v-1490h908v168H370v486h669v168H370v500h727V0H180" id="aC"/><path fill="#fff" d="M611 442c-248 0-391-105-460-228l146-94c47 65 117 165 314 165 178 0 307-82 307-266v-224h-17C863-141 792-18 576-18c-268 0-472-195-472-546 0-346 197-568 476-568 216 0 288 133 326 193h17v-179h175V29c0 289-215 413-487 413zm-5-620c203 0 314-146 314-390 0-237-108-403-314-403-213 0-319 180-319 403 0 230 109 390 319 390" id="aD"/><path fill="#fff" d="M157-1118h181V80c1 225-123 350-364 338V252c126 9 184-48 183-172v-1198zm91-183c-68 0-125-53-125-119s57-119 125-119c69 0 126 53 126 119s-57 119-126 119" id="aE"/><path fill="#fff" d="M158 0v-1118h175l1 205c55-151 181-225 313-225 147 0 245 90 285 228 53-141 190-228 352-228 194 0 352 125 352 384V0h-181v-749c0-161-105-225-225-225-151 0-243 103-243 244V0H807v-767c0-124-93-207-219-207-131 0-250 92-250 270V0H158" id="aF"/><g id="e"><use transform="matrix(0.010850694444444444,0,0,0.010850694444444444,0,0)" xlink:href="#aC"/><use transform="matrix(0.010850694444444444,0,0,0.010850694444444444,13.35720486111111,0)" xlink:href="#ar"/><use transform="matrix(0.010850694444444444,0,0,0.010850694444444444,26.48654513888889,0)" xlink:href="#aD"/><use transform="matrix(0.010850694444444444,0,0,0.010850694444444444,40.11501736111111,0)" xlink:href="#at"/><use transform="matrix(0.010850694444444444,0,0,0.010850694444444444,52.59331597222221,0)" xlink:href="#aE"/><use transform="matrix(0.010850694444444444,0,0,0.010850694444444444,57.97526041666666,0)" xlink:href="#at"/><use transform="matrix(0.010850694444444444,0,0,0.010850694444444444,70.45355902777777,0)" xlink:href="#aF"/><use transform="matrix(0.010850694444444444,0,0,0.010850694444444444,89.91970486111111,0)" xlink:href="#aq"/><use transform="matrix(0.010850694444444444,0,0,0.010850694444444444,102.87543402777777,0)" xlink:href="#ar"/><use transform="matrix(0.010850694444444444,0,0,0.010850694444444444,116.00477430555556,0)" xlink:href="#aB"/><use transform="matrix(0.010850694444444444,0,0,0.010850694444444444,123.05772569444441,0)" xlink:href="#ak"/></g><path fill="#fff" d="M65 0l393-574-370-544h210c88 136 192 297 267 435 67-142 176-302 264-435h206L661-564 1053 0H844c-94-144-206-310-287-458C484-308 366-142 273 0H65" id="aG"/><path fill="#fff" d="M158 418v-1536h174v179h20c37-59 106-193 324-193 279 0 474 222 474 576 0 356-194 580-473 580-213 0-288-135-325-197h-14v591H158zm492-555c209 0 317-186 317-421 0-232-105-413-317-413-206 0-314 166-314 413 0 249 111 421 314 421" id="aH"/><g id="f"><use transform="matrix(0.010850694444444444,0,0,0.010850694444444444,0,0)" xlink:href="#aC"/><use transform="matrix(0.010850694444444444,0,0,0.010850694444444444,13.35720486111111,0)" xlink:href="#aG"/><use transform="matrix(0.010850694444444444,0,0,0.010850694444444444,25.48828125,0)" xlink:href="#aH"/><use transform="matrix(0.010850694444444444,0,0,0.010850694444444444,39.31206597222222,0)" xlink:href="#at"/><use transform="matrix(0.010850694444444444,0,0,0.010850694444444444,51.79036458333333,0)" xlink:href="#ar"/><use transform="matrix(0.010850694444444444,0,0,0.010850694444444444,64.9197048611111,0)" xlink:href="#ah"/><use transform="matrix(0.010850694444444444,0,0,0.010850694444444444,76.64930555555554,0)" xlink:href="#aj"/><use transform="matrix(0.010850694444444444,0,0,0.010850694444444444,89.12760416666666,0)" xlink:href="#ak"/></g><path d="M180 0v-1490h510c348 0 508 194 508 460 0 198-88 351-276 417L1256 0h-220L726-579c-117 2-238 0-356 1V0H180zm190-747h312c235 0 327-108 327-283 0-177-92-293-329-293H370v576" id="aI"/><path d="M628 24c-324 0-524-230-524-574 0-343 198-582 503-582 237 0 487 146 487 559v75H286c9 234 145 362 343 362 132 0 231-58 273-172l174 48C1024-91 857 24 628 24zM287-650h624c-17-190-120-322-304-322-192 0-309 151-320 322" id="aJ"/><path d="M598-1118v154H368v674c0 100 37 144 132 144 23 0 62-6 92-12L629-6c-37 13-88 20-134 20-193 0-307-107-307-290v-688H20v-154h168v-266h180v266h230" id="aK"/><path d="M338-670V0H158v-1118h173l1 207c72-158 192-221 342-221 226 0 378 139 378 422V0H872v-695c0-172-96-275-252-275-161 0-282 109-282 300" id="aL"/><path d="M502 418V313h118c73 0 98-17 98-66s-25-65-98-65h-82l21-161C285-4 104-228 104-552c0-350 205-580 509-580 216 0 392 114 453 309l-173 49c-33-115-133-197-280-197-223 0-326 196-326 419 0 220 103 415 326 415 150 0 252-85 285-206l172 49C1015-110 859 5 663 22v64c130 5 189 54 189 162 0 118-71 170-231 170H502" id="aM"/><path d="M471 26C259 26 90-98 90-318c0-256 228-303 435-329 202-27 287-16 287-108 0-139-79-219-234-219-161 0-248 86-283 164l-173-57c86-203 278-265 451-265 150 0 419 46 419 395V0H815v-152h-12C765-73 660 26 471 26zm31-159c199 0 310-134 310-271v-155c-30 35-226 55-295 64-131 17-246 59-246 186 0 116 97 176 231 176zm187-1180c-99 0-192-83-243-83-35 0-51 40-53 79H267c4-120 55-208 162-208 104 0 174 85 241 85 33 0 49-23 56-81h123c-4 126-62 208-160 208" id="aN"/><path d="M613 24c-304 0-509-231-509-576 0-350 205-580 509-580 305 0 511 230 511 580 0 345-206 576-511 576zm0-161c226 0 329-195 329-415 0-222-103-419-329-419-223 0-326 196-326 419 0 220 103 415 326 415" id="aO"/><g id="g"><use transform="matrix(0.010416666666666668,0,0,0.010416666666666668,0,0)" xlink:href="#aI"/><use transform="matrix(0.010416666666666668,0,0,0.010416666666666668,13.416666666666668,0)" xlink:href="#aJ"/><use transform="matrix(0.010416666666666668,0,0,0.010416666666666668,25.854166666666668,0)" xlink:href="#aK"/><use transform="matrix(0.010416666666666668,0,0,0.010416666666666668,32.62500000000001,0)" xlink:href="#aJ"/><use transform="matrix(0.010416666666666668,0,0,0.010416666666666668,45.06250000000001,0)" xlink:href="#aL"/><use transform="matrix(0.010416666666666668,0,0,0.010416666666666668,57.66666666666667,0)" xlink:href="#aM"/><use transform="matrix(0.010416666666666668,0,0,0.010416666666666668,70.06250000000001,0)" xlink:href="#aN"/><use transform="matrix(0.010416666666666668,0,0,0.010416666666666668,82.04166666666669,0)" xlink:href="#aO"/></g><path d="M158 418v-1536h174v179h20c37-59 106-193 324-193 279 0 474 222 474 576 0 356-194 580-473 580-213 0-288-135-325-197h-14v591H158zm492-555c209 0 317-186 317-421 0-232-105-413-317-413-206 0-314 166-314 413 0 249 111 421 314 421" id="aP"/><path d="M158 0v-1118h174v172h12c41-113 157-188 290-188 26 0 70 2 91 3v181c-11-2-60-10-108-10-161 0-279 109-279 260V0H158" id="aQ"/><path d="M613 24c-304 0-509-231-509-576 0-350 205-580 509-580 216 0 392 114 453 309l-173 49c-33-115-133-197-280-197-223 0-326 196-326 419 0 220 103 415 326 415 150 0 252-85 285-206l172 49C1010-95 832 24 613 24" id="aR"/><g id="h"><use transform="matrix(0.010416666666666668,0,0,0.010416666666666668,0,0)" xlink:href="#aP"/><use transform="matrix(0.010416666666666668,0,0,0.010416666666666668,13.062500000000002,0)" xlink:href="#aQ"/><use transform="matrix(0.010416666666666668,0,0,0.010416666666666668,20.739583333333336,0)" xlink:href="#aJ"/><use transform="matrix(0.010416666666666668,0,0,0.010416666666666668,33.177083333333336,0)" xlink:href="#aR"/><use transform="matrix(0.010416666666666668,0,0,0.010416666666666668,45.364583333333336,0)" xlink:href="#aO"/><use transform="matrix(0.010416666666666668,0,0,0.010416666666666668,58.15625,0)" xlink:href="#aR"/><use transform="matrix(0.010416666666666668,0,0,0.010416666666666668,70.34375,0)" xlink:href="#aJ"/></g><path d="M66 0l185-1118h180L246 0H66zm307-1301c-71 0-117-55-106-119s74-119 145-119c65 0 117 50 106 118s-78 120-145 120" id="aS"/><path d="M356-664L245 0H65l186-1118h173l-32 197c96-152 219-211 366-211 232 0 366 145 319 428L960 0H779l117-701c29-174-48-269-198-269-165 0-310 115-342 306" id="aT"/><path d="M481 24C202 24 45-202 104-557s293-575 571-575c216 0 263 132 291 193h15l29-179h181L1006 0H831l28-173h-21C788-107 693 24 481 24zm56-161c204 0 342-174 383-422s-41-412-245-412c-215 0-350 183-388 412-39 235 39 422 250 422" id="aU"/><path d="M691-1118l-25 154H437L325-290c-17 103 16 144 108 144 23 0 63-6 94-12L538-6c-36 12-87 20-136 20-196 0-290-109-260-290l114-688H88l25-154h169l44-266h180l-44 266h229" id="aV"/><path d="M389 0L147-1118h188c55 314 135 617 168 951 141-329 323-637 482-951h205L578 0H389" id="aW"/><path d="M492 24C248 24 94-147 94-425c0-352 212-707 569-707 222 0 274 136 303 198h12l92-556h181L1004 0H829l30-173h-19C792-103 700 24 492 24zm32-161c268 0 407-295 407-549 0-175-80-285-247-285-266 0-408 283-408 536 0 174 79 298 248 298" id="aX"/><path d="M535 24C259 24 94-144 94-427c0-392 272-715 610-715 216 0 356 119 356 305 0 244-237 344-790 350-18 199 49 349 276 352 142 0 260-66 317-173l167 47C947-85 756 24 535 24zM294-623c447-4 586-57 586-218 0-85-78-141-194-141-220 0-342 177-392 359" id="aY"/><g id="i"><use transform="matrix(0.009765625,0,0,0.009765625,0,0)" xlink:href="#aS"/><use transform="matrix(0.009765625,0,0,0.009765625,4.853515625,0)" xlink:href="#aT"/><use transform="matrix(0.009765625,0,0,0.009765625,16.6796875,0)" xlink:href="#aU"/><use transform="matrix(0.009765625,0,0,0.009765625,28.955078125,0)" xlink:href="#aV"/><use transform="matrix(0.009765625,0,0,0.009765625,35.517578125,0)" xlink:href="#aS"/><use transform="matrix(0.009765625,0,0,0.009765625,40.37109375,0)" xlink:href="#aW"/><use transform="matrix(0.009765625,0,0,0.009765625,51.611328125,0)" xlink:href="#aS"/><use transform="matrix(0.009765625,0,0,0.009765625,56.46484375,0)" xlink:href="#aX"/><use transform="matrix(0.009765625,0,0,0.009765625,68.720703125,0)" xlink:href="#aU"/><use transform="matrix(0.009765625,0,0,0.009765625,80.99609375,0)" xlink:href="#aX"/><use transform="matrix(0.009765625,0,0,0.009765625,93.251953125,0)" xlink:href="#aY"/></g><path d="M158 0v-1118h180V0H158zm91-1301c-68 0-125-53-125-119s57-119 125-119c69 0 126 53 126 119s-57 119-126 119" id="aZ"/><path d="M338-1490V0H158v-1490h180" id="ba"/><path d="M471 26C259 26 90-98 90-318c0-256 228-303 435-329 202-27 287-16 287-108 0-139-79-219-234-219-161 0-248 86-283 164l-173-57c86-203 278-265 451-265 150 0 419 46 419 395V0H815v-152h-12C765-73 660 26 471 26zm31-159c199 0 310-134 310-271v-155c-30 35-226 55-295 64-131 17-246 59-246 186 0 116 97 176 231 176" id="bb"/><path d="M611 442c-248 0-391-105-460-228l146-94c47 65 117 165 314 165 178 0 307-82 307-266v-224h-17C863-141 792-18 576-18c-268 0-472-195-472-546 0-346 197-568 476-568 216 0 288 133 326 193h17v-179h175V29c0 289-215 413-487 413zm-5-620c203 0 314-146 314-390 0-237-108-403-314-403-213 0-319 180-319 403 0 230 109 390 319 390" id="bc"/><path d="M158 0v-1118h175l1 205c55-151 181-225 313-225 147 0 245 90 285 228 53-141 190-228 352-228 194 0 352 125 352 384V0h-181v-749c0-161-105-225-225-225-151 0-243 103-243 244V0H807v-767c0-124-93-207-219-207-131 0-250 92-250 270V0H158" id="bd"/><g id="j"><use transform="matrix(0.010416666666666668,0,0,0.010416666666666668,0,0)" xlink:href="#aI"/><use transform="matrix(0.010416666666666668,0,0,0.010416666666666668,13.416666666666668,0)" xlink:href="#aJ"/><use transform="matrix(0.010416666666666668,0,0,0.010416666666666668,25.854166666666668,0)" xlink:href="#aR"/><use transform="matrix(0.010416666666666668,0,0,0.010416666666666668,38.04166666666667,0)" xlink:href="#aZ"/><use transform="matrix(0.010416666666666668,0,0,0.010416666666666668,43.208333333333336,0)" xlink:href="#aR"/><use transform="matrix(0.010416666666666668,0,0,0.010416666666666668,55.39583333333334,0)" xlink:href="#ba"/><use transform="matrix(0.010416666666666668,0,0,0.010416666666666668,60.5625,0)" xlink:href="#bb"/><use transform="matrix(0.010416666666666668,0,0,0.010416666666666668,72.54166666666667,0)" xlink:href="#bc"/><use transform="matrix(0.010416666666666668,0,0,0.010416666666666668,85.62499999999999,0)" xlink:href="#aJ"/><use transform="matrix(0.010416666666666668,0,0,0.010416666666666668,98.06249999999999,0)" xlink:href="#bd"/></g><path d="M451 24C217 22 71-78 61-277l174-29c11 123 90 172 219 172 161 0 280-83 297-181 11-71-30-117-135-143l-179-44c-195-48-280-153-253-316 31-186 223-314 455-314 233 4 337 107 366 275l-165 30c-18-80-65-152-204-152-138 0-256 75-272 174-13 77 32 118 158 149l162 40c195 48 278 154 252 313C904-113 708 24 451 24" id="be"/><path d="M935 418H754l99-590h-16C786-98 698 24 492 24 248 24 94-147 94-425c0-352 212-707 569-707 221 0 280 140 310 204h10l32-190h175zM524-137c268 0 407-295 407-549 0-175-80-285-247-285-266 0-408 283-408 536 0 174 79 298 248 298" id="bf"/><path d="M443 14C219 14 87-123 134-408l117-710h180L317-423c-28 171 49 275 206 275s300-105 332-300l110-670h181L961 0H787l35-209C722-47 590 14 443 14" id="bg"/><path d="M492-1490L245 0H65l247-1490h180" id="bh"/><path d="M780-1118l-24 146H497L317 116C281 334 148 448-56 448c-43 0-82-5-117-17l45-161c143 34 239 0 264-153L316-972H89l24-146h227l13-77c43-287 254-417 541-345l-50 154c-23-5-81-8-121-8-107 0-167 63-189 196l-13 80h259" id="bi"/><path d="M528 24C258 24 94-156 94-433c0-354 228-699 603-699 222 0 381 120 410 314l-176 39c-14-114-95-192-238-192-272 0-419 288-419 536 0 167 76 298 258 298 155 0 277-90 329-211l166 58C935-93 745 24 528 24" id="bj"/><path d="M340 418l17-105h118c73 0 101-17 109-65s-11-66-87-66h-82l48-162C232-7 94-179 94-433c0-354 228-699 603-699 222 0 381 120 410 314l-176 39c-14-114-95-192-238-192-272 0-419 288-419 536 0 167 76 298 258 298 155 0 277-90 329-211l166 58C940-105 767 10 566 23l-10 63c126 5 179 52 162 159-19 119-95 173-259 173H340" id="bk"/><path d="M481 24C202 24 45-202 104-557s293-575 571-575c216 0 263 132 291 193h15l29-179h181L1006 0H831l28-173h-21C788-107 693 24 481 24zm56-161c204 0 342-174 383-422s-41-412-245-412c-215 0-350 183-388 412-39 235 39 422 250 422zm347-1176c-99 0-179-83-229-83-37 0-59 42-67 79H462c25-123 92-208 197-208 104 0 160 85 227 85 34 0 53-25 69-81h123c-25 129-98 208-194 208" id="bl"/><path d="M528 24C258 24 94-156 94-433c0-355 229-699 603-699 270 0 436 178 436 458 0 359-234 698-605 698zm4-161c275 0 420-287 420-533 0-170-77-301-260-301-271 0-418 288-418 536 0 168 77 298 258 298" id="bm"/><g id="k"><use transform="matrix(0.009765625,0,0,0.009765625,0,0)" xlink:href="#aX"/><use transform="matrix(0.009765625,0,0,0.009765625,12.255859375,0)" xlink:href="#aY"/><use transform="matrix(0.009765625,0,0,0.009765625,23.76953125,0)" xlink:href="#be"/><use transform="matrix(0.009765625,0,0,0.009765625,34.31640625,0)" xlink:href="#bf"/><use transform="matrix(0.009765625,0,0,0.009765625,46.572265625,0)" xlink:href="#bg"/><use transform="matrix(0.009765625,0,0,0.009765625,58.408203125,0)" xlink:href="#aU"/><use transform="matrix(0.009765625,0,0,0.009765625,70.68359375,0)" xlink:href="#bh"/><use transform="matrix(0.009765625,0,0,0.009765625,75.52734375,0)" xlink:href="#aS"/><use transform="matrix(0.009765625,0,0,0.009765625,80.380859375,0)" xlink:href="#bi"/><use transform="matrix(0.009765625,0,0,0.009765625,87.841796875,0)" xlink:href="#aS"/><use transform="matrix(0.009765625,0,0,0.009765625,92.6953125,0)" xlink:href="#bj"/><use transform="matrix(0.009765625,0,0,0.009765625,104.130859375,0)" xlink:href="#aU"/><use transform="matrix(0.009765625,0,0,0.009765625,116.40625,0)" xlink:href="#bk"/><use transform="matrix(0.009765625,0,0,0.009765625,128.037109375,0)" xlink:href="#bl"/><use transform="matrix(0.009765625,0,0,0.009765625,140.3125,0)" xlink:href="#bm"/></g><path d="M-4 418l255-1536h174l-30 179h9c47-68 143-193 355-193 246 0 401 170 401 447 0 348-211 709-568 709-219 0-274-140-300-202h-17l-99 596H-4zm572-555c267 0 411-296 411-543 0-170-78-291-250-291-269 0-405 284-405 542 0 177 81 292 244 292" id="bn"/><path d="M66 0l185-1118h174l-28 172h12c78-136 219-209 411-185l-30 181c-211-47-398 67-428 250L246 0H66" id="bo"/><g id="l"><use transform="matrix(0.009765625,0,0,0.009765625,0,0)" xlink:href="#bn"/><use transform="matrix(0.009765625,0,0,0.009765625,12.255859375,0)" xlink:href="#bm"/><use transform="matrix(0.009765625,0,0,0.009765625,24.2578125,0)" xlink:href="#bo"/></g><g id="m"><use transform="matrix(0.009765625,0,0,0.009765625,0,0)" xlink:href="#bi"/><use transform="matrix(0.009765625,0,0,0.009765625,7.4609375,0)" xlink:href="#aS"/><use transform="matrix(0.009765625,0,0,0.009765625,12.314453125,0)" xlink:href="#aV"/></g><path d="M783 20c-382 0-661-292-661-764 0-473 279-766 661-766 302 0 548 182 601 489h-190c-42-204-217-313-411-313-268 0-476 208-476 590 0 381 209 588 476 588 195 0 369-110 411-313h190c-52 303-296 489-601 489" id="bp"/><g id="n"><use transform="matrix(0.008680555555555556,0,0,0.008680555555555556,0,0)" xlink:href="#bp"/><use transform="matrix(0.008680555555555556,0,0,0.008680555555555556,12.986111111111112,0)" xlink:href="#ba"/><use transform="matrix(0.008680555555555556,0,0,0.008680555555555556,17.291666666666668,0)" xlink:href="#aZ"/><use transform="matrix(0.008680555555555556,0,0,0.008680555555555556,21.59722222222222,0)" xlink:href="#aJ"/><use transform="matrix(0.008680555555555556,0,0,0.008680555555555556,31.961805555555557,0)" xlink:href="#aL"/><use transform="matrix(0.008680555555555556,0,0,0.008680555555555556,42.46527777777778,0)" xlink:href="#aK"/><use transform="matrix(0.008680555555555556,0,0,0.008680555555555556,48.107638888888886,0)" xlink:href="#aJ"/></g><g id="o"><use transform="matrix(0.008680555555555556,0,0,0.008680555555555556,0,0)" xlink:href="#aL"/><use transform="matrix(0.008680555555555556,0,0,0.008680555555555556,10.503472222222223,0)" xlink:href="#aN"/><use transform="matrix(0.008680555555555556,0,0,0.008680555555555556,20.486111111111114,0)" xlink:href="#aO"/></g><path d="M537 14c-226 0-379-139-379-422v-710h180v695c0 172 97 275 253 275 160 0 281-109 281-300v-670h181V0H879v-209C806-46 684 14 537 14" id="bq"/><path d="M538 24C308 24 148-78 108-271l171-41c32 123 123 178 257 178 156 0 256-77 256-169 0-77-54-128-164-154l-186-44c-203-48-300-148-300-305 0-192 176-326 414-326 230 0 351 112 402 269l-163 42c-31-80-94-158-238-158-133 0-233 69-233 162 0 83 57 129 188 160l169 40c203 48 298 149 298 302 0 196-179 339-441 339" id="br"/><g id="p"><use transform="matrix(0.008680555555555556,0,0,0.008680555555555556,0,0)" xlink:href="#bq"/><use transform="matrix(0.008680555555555556,0,0,0.008680555555555556,10.512152777777779,0)" xlink:href="#br"/><use transform="matrix(0.008680555555555556,0,0,0.008680555555555556,19.895833333333336,0)" xlink:href="#aO"/><use transform="matrix(0.008680555555555556,0,0,0.008680555555555556,30.555555555555557,0)" xlink:href="#bq"/></g><path d="M692-1560L212 224H46l480-1784h166" id="bs"/><use transform="matrix(0.008680555555555556,0,0,0.008680555555555556,0,0)" xlink:href="#bs" id="q"/><g id="r"><use transform="matrix(0.008680555555555556,0,0,0.008680555555555556,0,0)" xlink:href="#aR"/><use transform="matrix(0.008680555555555556,0,0,0.008680555555555556,10.15625,0)" xlink:href="#aO"/><use transform="matrix(0.008680555555555556,0,0,0.008680555555555556,20.81597222222222,0)" xlink:href="#aL"/><use transform="matrix(0.008680555555555556,0,0,0.008680555555555556,31.319444444444443,0)" xlink:href="#aR"/><use transform="matrix(0.008680555555555556,0,0,0.008680555555555556,41.47569444444444,0)" xlink:href="#ba"/><use transform="matrix(0.008680555555555556,0,0,0.008680555555555556,45.78125,0)" xlink:href="#bq"/><use transform="matrix(0.008680555555555556,0,0,0.008680555555555556,56.29340277777778,0)" xlink:href="#aZ"/><use transform="matrix(0.008680555555555556,0,0,0.008680555555555556,60.598958333333336,0)" xlink:href="#bq"/></g><path d="M677 24c-213 0-288-135-325-197h-20V0H158v-1490h180v551h14c37-59 106-193 324-193 279 0 474 222 474 576 0 356-194 580-473 580zm-27-161c209 0 317-186 317-421 0-232-105-413-317-413-206 0-314 166-314 413 0 249 111 421 314 421" id="bt"/><path d="M577 24c-279 0-473-224-473-580 0-354 195-576 474-576 218 0 287 134 324 193h14v-551h180V0H922v-173h-20C865-111 790 24 577 24zm27-161c203 0 314-172 314-421 0-247-108-413-314-413-212 0-317 181-317 413 0 235 108 421 317 421" id="bu"/><g id="s"><use transform="matrix(0.008680555555555556,0,0,0.008680555555555556,0,0)" xlink:href="#aO"/><use transform="matrix(0.008680555555555556,0,0,0.008680555555555556,10.659722222222223,0)" xlink:href="#aL"/><use transform="matrix(0.008680555555555556,0,0,0.008680555555555556,21.163194444444446,0)" xlink:href="#bt"/><use transform="matrix(0.008680555555555556,0,0,0.008680555555555556,32.048611111111114,0)" xlink:href="#aO"/><use transform="matrix(0.008680555555555556,0,0,0.008680555555555556,42.88194444444444,0)" xlink:href="#bb"/><use transform="matrix(0.008680555555555556,0,0,0.008680555555555556,52.86458333333334,0)" xlink:href="#aQ"/><use transform="matrix(0.008680555555555556,0,0,0.008680555555555556,59.26215277777779,0)" xlink:href="#bu"/><use transform="matrix(0.008680555555555556,0,0,0.008680555555555556,70.14756944444446,0)" xlink:href="#aZ"/><use transform="matrix(0.008680555555555556,0,0,0.008680555555555556,74.45312500000001,0)" xlink:href="#aL"/><use transform="matrix(0.008680555555555556,0,0,0.008680555555555556,84.95659722222224,0)" xlink:href="#bc"/></g><path d="M218-607c0-325 108-727 258-974h175c-155 315-250 682-250 974 0 265 78 531 250 886H476C306-10 218-315 218-607" id="bv"/><path d="M635 20c-292 0-500-160-510-396h192c11 142 145 229 315 229 187 0 323-105 323-260 0-161-125-274-346-274H488v-165h121c174 0 294-100 294-254 0-148-104-245-266-245-152 0-291 85-297 230H157c8-234 222-395 484-395 278 0 448 188 448 400 0 168-95 291-247 336v12c190 31 301 169 301 357 0 244-216 425-508 425" id="bw"/><path d="M646 20c-332 0-524-278-524-764 0-483 194-766 524-766s524 283 524 766c0 485-191 764-524 764zm0-166c218 0 341-220 341-598 0-380-123-601-341-601s-341 222-341 601c0 378 123 598 341 598" id="bx"/><path d="M798-719v166H144v-166h654" id="by"/><path d="M646 20c-249 0-524-159-524-708 0-524 209-822 547-822 250 0 431 161 467 395H950c-33-129-126-227-281-227-229 0-367 208-367 566h12c80-124 212-198 367-198 255 0 467 205 467 493 0 278-198 501-502 501zm0-167c179 0 318-148 318-334 0-182-133-328-313-328-181 0-322 156-322 330 0 176 134 332 317 332" id="bz"/><g id="t"><use transform="matrix(0.008680555555555556,0,0,0.008680555555555556,0,0)" xlink:href="#bv"/><use transform="matrix(0.008680555555555556,0,0,0.008680555555555556,6.484375,0)" xlink:href="#bw"/><use transform="matrix(0.008680555555555556,0,0,0.008680555555555556,17.46527777777778,0)" xlink:href="#bx"/><use transform="matrix(0.008680555555555556,0,0,0.008680555555555556,28.680555555555557,0)" xlink:href="#by"/><use transform="matrix(0.008680555555555556,0,0,0.008680555555555556,36.85763888888889,0)" xlink:href="#bz"/><use transform="matrix(0.008680555555555556,0,0,0.008680555555555556,47.88194444444445,0)" xlink:href="#bx"/></g><path d="M96 279C273-86 346-350 346-607c0-292-95-659-250-974h175c150 246 258 650 258 974 0 297-91 602-258 886H96" id="bA"/><g id="u"><use transform="matrix(0.008680555555555556,0,0,0.008680555555555556,0,0)" xlink:href="#bu"/><use transform="matrix(0.008680555555555556,0,0,0.008680555555555556,10.885416666666668,0)" xlink:href="#aZ"/><use transform="matrix(0.008680555555555556,0,0,0.008680555555555556,15.190972222222223,0)" xlink:href="#bb"/><use transform="matrix(0.008680555555555556,0,0,0.008680555555555556,25.173611111111118,0)" xlink:href="#br"/><use transform="matrix(0.008680555555555556,0,0,0.008680555555555556,34.55729166666667,0)" xlink:href="#bA"/></g><g id="v"><use transform="matrix(0.009765625,0,0,0.009765625,0,0)" xlink:href="#bp"/><use transform="matrix(0.009765625,0,0,0.009765625,14.609375,0)" xlink:href="#aZ"/><use transform="matrix(0.009765625,0,0,0.009765625,19.453125,0)" xlink:href="#aR"/><use transform="matrix(0.009765625,0,0,0.009765625,30.87890625,0)" xlink:href="#ba"/><use transform="matrix(0.009765625,0,0,0.009765625,35.72265625,0)" xlink:href="#aO"/></g><g id="w"><use transform="matrix(0.009765625,0,0,0.009765625,0,0)" xlink:href="#bu"/><use transform="matrix(0.009765625,0,0,0.009765625,12.24609375,0)" xlink:href="#aJ"/></g><path d="M481 0L54-1118h197c107 314 236 620 325 951 87-331 217-637 324-951h197L670 0H481" id="bB"/><g id="x"><use transform="matrix(0.009765625,0,0,0.009765625,0,0)" xlink:href="#bB"/><use transform="matrix(0.009765625,0,0,0.009765625,11.142578125,0)" xlink:href="#bb"/><use transform="matrix(0.009765625,0,0,0.009765625,22.373046875,0)" xlink:href="#ba"/><use transform="matrix(0.009765625,0,0,0.009765625,27.216796875,0)" xlink:href="#aO"/><use transform="matrix(0.009765625,0,0,0.009765625,39.208984375,0)" xlink:href="#aQ"/></g><path d="M158 0v-1118h180V0H158zm12-1264l140-294h201l-194 294H170" id="bC"/><g id="y"><use transform="matrix(0.009765625,0,0,0.009765625,0,0)" xlink:href="#aR"/><use transform="matrix(0.009765625,0,0,0.009765625,11.42578125,0)" xlink:href="#aO"/><use transform="matrix(0.009765625,0,0,0.009765625,23.41796875,0)" xlink:href="#aL"/><use transform="matrix(0.009765625,0,0,0.009765625,35.234375,0)" xlink:href="#aK"/><use transform="matrix(0.009765625,0,0,0.009765625,41.77734375,0)" xlink:href="#bC"/><use transform="matrix(0.009765625,0,0,0.009765625,46.62109375,0)" xlink:href="#aL"/><use transform="matrix(0.009765625,0,0,0.009765625,58.4375,0)" xlink:href="#bq"/><use transform="matrix(0.009765625,0,0,0.009765625,70.263671875,0)" xlink:href="#aO"/></g><path d="M157-1118h181V80c1 225-123 350-364 338V252c126 9 184-48 183-172v-1198zm91-183c-68 0-125-53-125-119s57-119 125-119c69 0 126 53 126 119s-57 119-126 119" id="bD"/><g id="z"><use transform="matrix(0.009765625,0,0,0.009765625,0,0)" xlink:href="#aI"/><use transform="matrix(0.009765625,0,0,0.009765625,12.578125,0)" xlink:href="#aJ"/><use transform="matrix(0.009765625,0,0,0.009765625,24.23828125,0)" xlink:href="#aJ"/><use transform="matrix(0.009765625,0,0,0.009765625,35.8984375,0)" xlink:href="#aL"/><use transform="matrix(0.009765625,0,0,0.009765625,47.71484375,0)" xlink:href="#bc"/><use transform="matrix(0.009765625,0,0,0.009765625,59.98046875,0)" xlink:href="#bb"/><use transform="matrix(0.009765625,0,0,0.009765625,71.2109375,0)" xlink:href="#bD"/><use transform="matrix(0.009765625,0,0,0.009765625,76.0546875,0)" xlink:href="#bb"/><use transform="matrix(0.009765625,0,0,0.009765625,87.28515625,0)" xlink:href="#bd"/><use transform="matrix(0.009765625,0,0,0.009765625,104.8046875,0)" xlink:href="#aJ"/><use transform="matrix(0.009765625,0,0,0.009765625,116.46484375,0)" xlink:href="#aL"/><use transform="matrix(0.009765625,0,0,0.009765625,128.28125,0)" xlink:href="#aK"/><use transform="matrix(0.009765625,0,0,0.009765625,134.62890625,0)" xlink:href="#aO"/></g><g id="B"><use transform="matrix(0.010416666666666668,0,0,0.010416666666666668,0,0)" xlink:href="#aI"/><use transform="matrix(0.010416666666666668,0,0,0.010416666666666668,13.416666666666668,0)" xlink:href="#aJ"/><use transform="matrix(0.010416666666666668,0,0,0.010416666666666668,25.854166666666668,0)" xlink:href="#aR"/><use transform="matrix(0.010416666666666668,0,0,0.010416666666666668,38.04166666666667,0)" xlink:href="#bq"/><use transform="matrix(0.010416666666666668,0,0,0.010416666666666668,50.65625000000001,0)" xlink:href="#aP"/><use transform="matrix(0.010416666666666668,0,0,0.010416666666666668,63.71875000000001,0)" xlink:href="#aJ"/><use transform="matrix(0.010416666666666668,0,0,0.010416666666666668,76.15625000000001,0)" xlink:href="#aQ"/><use transform="matrix(0.010416666666666668,0,0,0.010416666666666668,84.18750000000001,0)" xlink:href="#bb"/><use transform="matrix(0.010416666666666668,0,0,0.010416666666666668,96.16666666666667,0)" xlink:href="#aM"/><use transform="matrix(0.010416666666666668,0,0,0.010416666666666668,108.56250000000001,0)" xlink:href="#aN"/><use transform="matrix(0.010416666666666668,0,0,0.010416666666666668,120.54166666666669,0)" xlink:href="#aO"/></g><g id="C"><use transform="matrix(0.010416666666666668,0,0,0.010416666666666668,0,0)" xlink:href="#bu"/><use transform="matrix(0.010416666666666668,0,0,0.010416666666666668,13.062500000000002,0)" xlink:href="#aJ"/></g><path d="M180 0v-1490h270l367 940c28 72 75 218 110 339 35-117 81-264 110-339l362-940h271V0h-187c2-448-5-837 7-1287-157 497-311 829-483 1287H842C666-458 514-784 354-1284c12 438 5 843 7 1284H180" id="bE"/><path d="M784 20c-382 0-662-292-662-764 0-473 280-766 662-766s660 293 660 766c0 282-99 499-260 629l192 255h-198L1049-33C969 2 880 20 784 20zm-62-486h198l156 205c112-98 183-261 183-483 0-383-209-590-475-590-268 0-477 208-477 590 0 380 209 588 477 588 54 0 106-9 154-25" id="bF"/><path d="M180 0v-1490h190v1322h690V0H180" id="bG"/><g id="D"><use transform="matrix(0.010416666666666668,0,0,0.010416666666666668,0,0)" xlink:href="#bE"/><use transform="matrix(0.010416666666666668,0,0,0.010416666666666668,19.270833333333336,0)" xlink:href="#bF"/><use transform="matrix(0.010416666666666668,0,0,0.010416666666666668,35.58333333333334,0)" xlink:href="#bG"/><use transform="matrix(0.010416666666666668,0,0,0.010416666666666668,47.645833333333336,0)" xlink:href="#br"/></g><g id="E"><use transform="matrix(0.010850694444444444,0,0,0.010850694444444444,0,0)" xlink:href="#ax"/><use transform="matrix(0.010850694444444444,0,0,0.010850694444444444,13.975694444444445,0)" xlink:href="#aq"/><use transform="matrix(0.010850694444444444,0,0,0.010850694444444444,26.931423611111104,0)" xlink:href="#aB"/><use transform="matrix(0.010850694444444444,0,0,0.010850694444444444,33.98437499999999,0)" xlink:href="#aq"/><use transform="matrix(0.010850694444444444,0,0,0.010850694444444444,46.94010416666666,0)" xlink:href="#ar"/><use transform="matrix(0.010850694444444444,0,0,0.010850694444444444,60.069444444444436,0)" xlink:href="#ai"/><use transform="matrix(0.010850694444444444,0,0,0.010850694444444444,72.98177083333331,0)" xlink:href="#aj"/><use transform="matrix(0.010850694444444444,0,0,0.010850694444444444,85.46006944444443,0)" xlink:href="#ak"/></g><g id="F"><use transform="matrix(0.009765625,0,0,0.009765625,0,0)" xlink:href="#bp"/><use transform="matrix(0.009765625,0,0,0.009765625,14.609375,0)" xlink:href="#bb"/><use transform="matrix(0.009765625,0,0,0.009765625,25.83984375,0)" xlink:href="#aZ"/></g><g id="G"><use transform="matrix(0.009765625,0,0,0.009765625,0,0)" xlink:href="#aJ"/><use transform="matrix(0.009765625,0,0,0.009765625,11.66015625,0)" xlink:href="#aL"/><use transform="matrix(0.009765625,0,0,0.009765625,23.4765625,0)" xlink:href="#bc"/><use transform="matrix(0.009765625,0,0,0.009765625,35.7421875,0)" xlink:href="#bb"/><use transform="matrix(0.009765625,0,0,0.009765625,46.97265625,0)" xlink:href="#bD"/><use transform="matrix(0.009765625,0,0,0.009765625,51.81640625,0)" xlink:href="#bb"/><use transform="matrix(0.009765625,0,0,0.009765625,63.046875,0)" xlink:href="#bd"/><use transform="matrix(0.009765625,0,0,0.009765625,80.56640625,0)" xlink:href="#aJ"/><use transform="matrix(0.009765625,0,0,0.009765625,92.2265625,0)" xlink:href="#aL"/><use transform="matrix(0.009765625,0,0,0.009765625,104.04296875,0)" xlink:href="#aK"/><use transform="matrix(0.009765625,0,0,0.009765625,110.390625,0)" xlink:href="#aO"/></g><path d="M763 24c-353 0-583-224-583-531v-983h190v968c0 214 149 370 393 370 243 0 391-156 391-370v-968h190v983c0 307-230 531-581 531" id="bH"/><g id="H"><use transform="matrix(0.010416666666666668,0,0,0.010416666666666668,0,0)" xlink:href="#bH"/><use transform="matrix(0.010416666666666668,0,0,0.010416666666666668,15.875000000000002,0)" xlink:href="#aP"/><use transform="matrix(0.010416666666666668,0,0,0.010416666666666668,28.937500000000004,0)" xlink:href="#br"/><use transform="matrix(0.010416666666666668,0,0,0.010416666666666668,40.19791666666667,0)" xlink:href="#aJ"/><use transform="matrix(0.010416666666666668,0,0,0.010416666666666668,52.63541666666667,0)" xlink:href="#ba"/><use transform="matrix(0.010416666666666668,0,0,0.010416666666666668,57.80208333333334,0)" xlink:href="#ba"/></g><use transform="matrix(0.010416666666666668,0,0,0.010416666666666668,0,0)" xlink:href="#bs" id="I"/><g id="J"><use transform="matrix(0.010416666666666668,0,0,0.010416666666666668,0,0)" xlink:href="#bp"/><use transform="matrix(0.010416666666666668,0,0,0.010416666666666668,15.583333333333336,0)" xlink:href="#aQ"/><use transform="matrix(0.010416666666666668,0,0,0.010416666666666668,23.260416666666668,0)" xlink:href="#aO"/><use transform="matrix(0.010416666666666668,0,0,0.010416666666666668,36.05208333333334,0)" xlink:href="#br"/><use transform="matrix(0.010416666666666668,0,0,0.010416666666666668,47.312500000000014,0)" xlink:href="#br"/><use transform="matrix(0.010416666666666668,0,0,0.010416666666666668,58.572916666666686,0)" xlink:href="#by"/><use transform="matrix(0.010416666666666668,0,0,0.010416666666666668,68.38541666666669,0)" xlink:href="#br"/><use transform="matrix(0.010416666666666668,0,0,0.010416666666666668,79.64583333333336,0)" xlink:href="#aJ"/><use transform="matrix(0.010416666666666668,0,0,0.010416666666666668,92.08333333333336,0)" xlink:href="#ba"/><use transform="matrix(0.010416666666666668,0,0,0.010416666666666668,97.25000000000003,0)" xlink:href="#ba"/></g><use transform="matrix(0.010416666666666668,0,0,0.010416666666666668,0,0)" xlink:href="#bs" id="K"/><path d="M613 24c-304 0-509-231-509-576 0-350 205-580 509-580 305 0 511 230 511 580 0 345-206 576-511 576zm0-161c226 0 329-195 329-415 0-222-103-419-329-419-223 0-326 196-326 419 0 220 103 415 326 415zm131-1176c-99 0-192-83-243-83-35 0-51 40-53 79H322c4-120 55-208 162-208 104 0 174 85 241 85 33 0 49-23 56-81h123c-4 126-62 208-160 208" id="bI"/><g id="L"><use transform="matrix(0.010416666666666668,0,0,0.010416666666666668,0,0)" xlink:href="#aI"/><use transform="matrix(0.010416666666666668,0,0,0.010416666666666668,13.416666666666668,0)" xlink:href="#aJ"/><use transform="matrix(0.010416666666666668,0,0,0.010416666666666668,25.854166666666668,0)" xlink:href="#aL"/><use transform="matrix(0.010416666666666668,0,0,0.010416666666666668,38.45833333333334,0)" xlink:href="#aO"/><use transform="matrix(0.010416666666666668,0,0,0.010416666666666668,50.833333333333336,0)" xlink:href="#bB"/><use transform="matrix(0.010416666666666668,0,0,0.010416666666666668,62.718750000000014,0)" xlink:href="#bb"/><use transform="matrix(0.010416666666666668,0,0,0.010416666666666668,74.69791666666669,0)" xlink:href="#aM"/><use transform="matrix(0.010416666666666668,0,0,0.010416666666666668,86.88541666666667,0)" xlink:href="#bI"/><use transform="matrix(0.010416666666666668,0,0,0.010416666666666668,99.67708333333336,0)" xlink:href="#aJ"/><use transform="matrix(0.010416666666666668,0,0,0.010416666666666668,112.11458333333337,0)" xlink:href="#br"/></g><path d="M135 0v-1490h305v1237h643V0H135" id="bJ"/><path d="M633 22C291 22 81-200 81-553c0-345 210-579 537-579 292 0 525 185 525 567v84H378c7 183 109 277 260 277 105 0 184-46 216-132l272 51C1071-99 893 22 633 22zM380-669h474c-15-146-94-237-233-237-143 0-229 99-241 237" id="bK"/><path d="M625 442c-280 0-454-114-503-274l258-72c28 63 97 128 243 128 153 0 246-69 246-216v-206h-23C805-108 717-16 536-16 284-16 81-191 81-561c0-378 208-571 456-571 188 0 280 113 321 202h13v-188h295V-9c0 303-226 451-541 451zm5-686c153 0 240-119 240-319 0-198-86-329-240-329-158 0-241 137-241 329 0 195 85 319 241 319" id="bL"/><path d="M428-647V0H128v-1118h283l4 231c63-156 176-245 348-245 232 0 384 159 384 421V0H847v-659c0-139-76-222-202-222-128 0-217 86-217 234" id="bM"/><path d="M537 19C279 19 81-185 81-557c0-382 206-575 454-575 190 0 278 113 318 202h10v-560h300V0H868v-179h-15C812-89 719 19 537 19zm92-241c153 0 240-134 240-336 0-203-86-334-240-334-158 0-240 138-240 334 0 197 84 336 240 336" id="bN"/><path d="M440 22C227 22 68-92 68-313c0-250 202-322 422-343 195-21 271-24 271-105 0-95-63-149-175-149-116 0-187 57-211 129l-275-46c57-194 237-305 487-305 240 0 474 108 474 379V0H777v-155h-10C713-51 605 22 440 22zm85-211c140 0 238-93 238-211v-121c-37 26-156 42-222 51-111 16-185 59-185 149 0 87 70 132 169 132" id="bO"/><g id="M"><use transform="matrix(0.0087890625,0,0,0.0087890625,0,0)" xlink:href="#bJ"/><use transform="matrix(0.0087890625,0,0,0.0087890625,10.177734375,0)" xlink:href="#bK"/><use transform="matrix(0.0087890625,0,0,0.0087890625,20.900390625,0)" xlink:href="#bL"/><use transform="matrix(0.0087890625,0,0,0.0087890625,32.2734375,0)" xlink:href="#bK"/><use transform="matrix(0.0087890625,0,0,0.0087890625,42.99609375,0)" xlink:href="#bM"/><use transform="matrix(0.0087890625,0,0,0.0087890625,54.2021484375,0)" xlink:href="#bN"/><use transform="matrix(0.0087890625,0,0,0.0087890625,65.548828125,0)" xlink:href="#bO"/></g><path d="M628 22C291 22 81-210 81-554c0-346 210-578 547-578 336 0 547 232 547 578 0 344-211 576-547 576zm0-236c160 0 242-146 242-341 0-197-82-341-242-341S387-753 387-555c0 195 81 341 241 341" id="bP"/><g id="N"><use transform="matrix(0.0087890625,0,0,0.0087890625,0,0)" xlink:href="#bN"/><use transform="matrix(0.0087890625,0,0,0.0087890625,11.3466796875,0)" xlink:href="#bP"/></g><path d="M128 0v-1118h300V0H128zm150-1264c-91 0-165-68-165-154 0-85 74-154 165-154 90 0 165 69 165 154 0 86-75 154-165 154" id="bQ"/><path d="M128 0v-1118h290v195h12c54-169 184-238 367-200v268c-27-8-86-15-130-15-138 0-239 95-239 234V0H128" id="bR"/><path d="M128 0v-1118h278l12 217c60-163 185-234 319-234 143 0 236 81 288 251 63-172 205-251 359-251 205 0 357 138 357 381V0h-301v-697c0-126-76-187-177-187-114 0-184 79-184 196V0H789v-705c0-109-72-179-174-179-106 0-187 74-187 208V0H128" id="bS"/><g id="O"><use transform="matrix(0.0087890625,0,0,0.0087890625,0,0)" xlink:href="#bN"/><use transform="matrix(0.0087890625,0,0,0.0087890625,11.3466796875,0)" xlink:href="#bQ"/><use transform="matrix(0.0087890625,0,0,0.0087890625,16.224609375,0)" xlink:href="#bO"/><use transform="matrix(0.0087890625,0,0,0.0087890625,26.6748046875,0)" xlink:href="#bL"/><use transform="matrix(0.0087890625,0,0,0.0087890625,38.0478515625,0)" xlink:href="#bR"/><use transform="matrix(0.0087890625,0,0,0.0087890625,45.1318359375,0)" xlink:href="#bO"/><use transform="matrix(0.0087890625,0,0,0.0087890625,55.58203125,0)" xlink:href="#bS"/><use transform="matrix(0.0087890625,0,0,0.0087890625,72.0087890625,0)" xlink:href="#bO"/></g><path d="M180 0v-1490h901v168H370v510h643v168H370V0H180" id="bT"/><path d="M65 0l393-574-370-544h210c88 136 192 297 267 435 67-142 176-302 264-435h206L661-564 1053 0H844c-94-144-206-310-287-458C484-308 366-142 273 0H65" id="bU"/><g id="P"><use transform="matrix(0.0068359375,0,0,0.0068359375,0,0)" xlink:href="#bT"/><use transform="matrix(0.0068359375,0,0,0.0068359375,8.2646484375,0)" xlink:href="#ba"/><use transform="matrix(0.0068359375,0,0,0.0068359375,11.6552734375,0)" xlink:href="#bq"/><use transform="matrix(0.0068359375,0,0,0.0068359375,19.93359375,0)" xlink:href="#bU"/><use transform="matrix(0.0068359375,0,0,0.0068359375,27.26171875,0)" xlink:href="#aO"/></g><g id="Q"><use transform="matrix(0.0068359375,0,0,0.0068359375,0,0)" xlink:href="#aP"/><use transform="matrix(0.0068359375,0,0,0.0068359375,8.572265625,0)" xlink:href="#aQ"/><use transform="matrix(0.0068359375,0,0,0.0068359375,14.0615234375,0)" xlink:href="#aZ"/><use transform="matrix(0.0068359375,0,0,0.0068359375,17.4521484375,0)" xlink:href="#aL"/><use transform="matrix(0.0068359375,0,0,0.0068359375,25.7236328125,0)" xlink:href="#aR"/><use transform="matrix(0.0068359375,0,0,0.0068359375,33.7216796875,0)" xlink:href="#aZ"/><use transform="matrix(0.0068359375,0,0,0.0068359375,37.1123046875,0)" xlink:href="#aP"/><use transform="matrix(0.0068359375,0,0,0.0068359375,45.8212890625,0)" xlink:href="#bb"/><use transform="matrix(0.0068359375,0,0,0.0068359375,53.6826171875,0)" xlink:href="#ba"/><use transform="matrix(0.0068359375,0,0,0.0068359375,57.0732421875,0)" xlink:href="#bs"/><use transform="matrix(0.0068359375,0,0,0.0068359375,62.1181640625,0)" xlink:href="#ba"/><use transform="matrix(0.0068359375,0,0,0.0068359375,65.5087890625,0)" xlink:href="#aZ"/><use transform="matrix(0.0068359375,0,0,0.0068359375,68.8994140625,0)" xlink:href="#aL"/><use transform="matrix(0.0068359375,0,0,0.0068359375,77.1708984375,0)" xlink:href="#aJ"/><use transform="matrix(0.0068359375,0,0,0.0068359375,85.4697265625,0)" xlink:href="#bb"/><use transform="matrix(0.0068359375,0,0,0.0068359375,93.3310546875,0)" xlink:href="#aQ"/></g><path d="M784 20c-382 0-662-292-662-764 0-473 280-766 662-766s660 293 660 766c0 472-278 764-660 764zm0-176c266 0 475-207 475-588 0-383-209-590-475-590-268 0-477 208-477 590 0 380 209 588 477 588" id="bV"/><g id="R"><use transform="matrix(0.0068359375,0,0,0.0068359375,0,0)" xlink:href="#bV"/><use transform="matrix(0.0068359375,0,0,0.0068359375,10.705078125,0)" xlink:href="#aP"/><use transform="matrix(0.0068359375,0,0,0.0068359375,19.27734375,0)" xlink:href="#aO"/><use transform="matrix(0.0068359375,0,0,0.0068359375,27.671875,0)" xlink:href="#aQ"/><use transform="matrix(0.0068359375,0,0,0.0068359375,33.1611328125,0)" xlink:href="#aK"/><use transform="matrix(0.0068359375,0,0,0.0068359375,37.7412109375,0)" xlink:href="#bq"/><use transform="matrix(0.0068359375,0,0,0.0068359375,46.01953125,0)" xlink:href="#aL"/><use transform="matrix(0.0068359375,0,0,0.0068359375,54.291015625,0)" xlink:href="#aZ"/><use transform="matrix(0.0068359375,0,0,0.0068359375,57.681640625,0)" xlink:href="#bu"/><use transform="matrix(0.0068359375,0,0,0.0068359375,66.25390625,0)" xlink:href="#bb"/><use transform="matrix(0.0068359375,0,0,0.0068359375,74.115234375,0)" xlink:href="#bu"/><use transform="matrix(0.0068359375,0,0,0.0068359375,82.6875,0)" xlink:href="#aJ"/><use transform="matrix(0.0068359375,0,0,0.0068359375,90.849609375,0)" xlink:href="#br"/></g><g id="S"><use transform="matrix(0.0068359375,0,0,0.0068359375,0,0)" xlink:href="#bu"/><use transform="matrix(0.0068359375,0,0,0.0068359375,8.572265625,0)" xlink:href="#aJ"/></g><g id="T"><use transform="matrix(0.0068359375,0,0,0.0068359375,0,0)" xlink:href="#aQ"/><use transform="matrix(0.0068359375,0,0,0.0068359375,5.0380859375,0)" xlink:href="#aJ"/><use transform="matrix(0.0068359375,0,0,0.0068359375,13.2001953125,0)" xlink:href="#aR"/><use transform="matrix(0.0068359375,0,0,0.0068359375,21.1982421875,0)" xlink:href="#bq"/><use transform="matrix(0.0068359375,0,0,0.0068359375,29.4765625,0)" xlink:href="#aP"/><use transform="matrix(0.0068359375,0,0,0.0068359375,38.048828125,0)" xlink:href="#aJ"/><use transform="matrix(0.0068359375,0,0,0.0068359375,46.2109375,0)" xlink:href="#aQ"/><use transform="matrix(0.0068359375,0,0,0.0068359375,51.4814453125,0)" xlink:href="#bb"/><use transform="matrix(0.0068359375,0,0,0.0068359375,59.3427734375,0)" xlink:href="#aM"/><use transform="matrix(0.0068359375,0,0,0.0068359375,67.4775390625,0)" xlink:href="#aN"/><use transform="matrix(0.0068359375,0,0,0.0068359375,75.3388671875,0)" xlink:href="#aO"/></g><g id="U"><use transform="matrix(0.0068359375,0,0,0.0068359375,0,0)" xlink:href="#bE"/><use transform="matrix(0.0068359375,0,0,0.0068359375,12.646484375,0)" xlink:href="#bF"/><use transform="matrix(0.0068359375,0,0,0.0068359375,23.3515625,0)" xlink:href="#bG"/><use transform="matrix(0.0068359375,0,0,0.0068359375,31.267578125,0)" xlink:href="#br"/></g><path d="M180 0v-1490h510c348 0 508 209 508 474 0 266-160 477-507 477H370V0H180zm190-706h312c236 0 327-133 327-310 0-176-91-307-329-307H370v617" id="bW"/><g id="V"><use transform="matrix(0.0068359375,0,0,0.0068359375,0,0)" xlink:href="#bW"/><use transform="matrix(0.0068359375,0,0,0.0068359375,8.94140625,0)" xlink:href="#aQ"/><use transform="matrix(0.0068359375,0,0,0.0068359375,13.9794921875,0)" xlink:href="#aJ"/><use transform="matrix(0.0068359375,0,0,0.0068359375,21.8681640625,0)" xlink:href="#bB"/><use transform="matrix(0.0068359375,0,0,0.0068359375,29.462890625,0)" xlink:href="#aJ"/><use transform="matrix(0.0068359375,0,0,0.0068359375,37.625,0)" xlink:href="#aL"/><use transform="matrix(0.0068359375,0,0,0.0068359375,45.896484375,0)" xlink:href="#aM"/><use transform="matrix(0.0068359375,0,0,0.0068359375,54.03125,0)" xlink:href="#aN"/><use transform="matrix(0.0068359375,0,0,0.0068359375,61.892578125,0)" xlink:href="#aO"/></g><use transform="matrix(0.0068359375,0,0,0.0068359375,0,0)" xlink:href="#bb" id="W"/><path d="M338-670V0H158v-1490h180v566c73-149 190-208 336-208 226 0 379 139 379 422V0H872v-695c0-172-96-275-252-275-161 0-282 109-282 300" id="bX"/><g id="X"><use transform="matrix(0.0068359375,0,0,0.0068359375,0,0)" xlink:href="#aR"/><use transform="matrix(0.0068359375,0,0,0.0068359375,7.998046875,0)" xlink:href="#bX"/><use transform="matrix(0.0068359375,0,0,0.0068359375,16.2763671875,0)" xlink:href="#bq"/><use transform="matrix(0.0068359375,0,0,0.0068359375,24.5546875,0)" xlink:href="#aQ"/><use transform="matrix(0.0068359375,0,0,0.0068359375,30.0439453125,0)" xlink:href="#aL"/></g><path d="M370-1490V0H180v-1490h190" id="bY"/><path d="M128 359l88-567h206L266 359H128" id="bZ"/><g id="Y"><use transform="matrix(0.010416666666666668,0,0,0.010416666666666668,0,0)" xlink:href="#bY"/><use transform="matrix(0.010416666666666668,0,0,0.010416666666666668,5.729166666666667,0)" xlink:href="#aL"/><use transform="matrix(0.010416666666666668,0,0,0.010416666666666668,18.333333333333336,0)" xlink:href="#bt"/><use transform="matrix(0.010416666666666668,0,0,0.010416666666666668,31.395833333333336,0)" xlink:href="#aO"/><use transform="matrix(0.010416666666666668,0,0,0.010416666666666668,44.18749999999999,0)" xlink:href="#bq"/><use transform="matrix(0.010416666666666668,0,0,0.010416666666666668,56.80208333333334,0)" xlink:href="#aL"/><use transform="matrix(0.010416666666666668,0,0,0.010416666666666668,69.40625,0)" xlink:href="#bu"/><use transform="matrix(0.010416666666666668,0,0,0.010416666666666668,82.46875,0)" xlink:href="#bZ"/></g><g id="Z"><use transform="matrix(0.010416666666666668,0,0,0.010416666666666668,0,0)" xlink:href="#bE"/><use transform="matrix(0.010416666666666668,0,0,0.010416666666666668,19.270833333333336,0)" xlink:href="#bC"/><use transform="matrix(0.010416666666666668,0,0,0.010416666666666668,24.437500000000004,0)" xlink:href="#bu"/><use transform="matrix(0.010416666666666668,0,0,0.010416666666666668,37.50000000000001,0)" xlink:href="#aZ"/><use transform="matrix(0.010416666666666668,0,0,0.010416666666666668,42.66666666666667,0)" xlink:href="#bb"/></g><g id="aa"><use transform="matrix(0.010416666666666668,0,0,0.010416666666666668,0,0)" xlink:href="#aP"/><use transform="matrix(0.010416666666666668,0,0,0.010416666666666668,13.270833333333334,0)" xlink:href="#bb"/><use transform="matrix(0.010416666666666668,0,0,0.010416666666666668,25.250000000000004,0)" xlink:href="#bc"/><use transform="matrix(0.010416666666666668,0,0,0.010416666666666668,38.333333333333336,0)" xlink:href="#bb"/><use transform="matrix(0.010416666666666668,0,0,0.010416666666666668,50.31249999999999,0)" xlink:href="#bZ"/></g><path d="M180 0v-1490h908v168H370v486h669v168H370v500h727V0H180" id="ca"/><g id="ab"><use transform="matrix(0.010416666666666668,0,0,0.010416666666666668,0,0)" xlink:href="#ca"/><use transform="matrix(0.010416666666666668,0,0,0.010416666666666668,12.822916666666668,0)" xlink:href="#bB"/><use transform="matrix(0.010416666666666668,0,0,0.010416666666666668,24.395833333333336,0)" xlink:href="#aJ"/><use transform="matrix(0.010416666666666668,0,0,0.010416666666666668,36.833333333333336,0)" xlink:href="#aL"/><use transform="matrix(0.010416666666666668,0,0,0.010416666666666668,49.43749999999999,0)" xlink:href="#aK"/><use transform="matrix(0.010416666666666668,0,0,0.010416666666666668,56.20833333333333,0)" xlink:href="#aO"/><use transform="matrix(0.010416666666666668,0,0,0.010416666666666668,69,0)" xlink:href="#br"/><use transform="matrix(0.010416666666666668,0,0,0.010416666666666668,80.26041666666667,0)" xlink:href="#bZ"/></g><g id="ac"><use transform="matrix(0.010416666666666668,0,0,0.010416666666666668,0,0)" xlink:href="#bY"/><use transform="matrix(0.010416666666666668,0,0,0.010416666666666668,5.729166666666667,0)" xlink:href="#aL"/><use transform="matrix(0.010416666666666668,0,0,0.010416666666666668,18.333333333333336,0)" xlink:href="#bu"/><use transform="matrix(0.010416666666666668,0,0,0.010416666666666668,31.395833333333336,0)" xlink:href="#aZ"/><use transform="matrix(0.010416666666666668,0,0,0.010416666666666668,36.5625,0)" xlink:href="#aR"/><use transform="matrix(0.010416666666666668,0,0,0.010416666666666668,48.958333333333336,0)" xlink:href="#bb"/><use transform="matrix(0.010416666666666668,0,0,0.010416666666666668,60.9375,0)" xlink:href="#aM"/><use transform="matrix(0.010416666666666668,0,0,0.010416666666666668,73.125,0)" xlink:href="#bI"/><use transform="matrix(0.010416666666666668,0,0,0.010416666666666668,85.91666666666667,0)" xlink:href="#aJ"/><use transform="matrix(0.010416666666666668,0,0,0.010416666666666668,98.35416666666667,0)" xlink:href="#br"/></g></defs></g></svg>